<svg width="36" height="36" viewBox="0 0 36 36" fill="none" xmlns="http://www.w3.org/2000/svg">
<rect x="0.5" y="0.5" width="35" height="35" rx="7.5" fill="white"/>
<path d="M18.0175 10.425C15.2591 10.425 13.0175 12.6667 13.0175 15.425V17.8333C13.0175 18.3417 12.8008 19.1167 12.5425 19.55L11.5841 21.1417C10.9925 22.125 11.4008 23.2167 12.4841 23.5833C16.0758 24.7833 19.9508 24.7833 23.5425 23.5833C24.5508 23.25 24.9925 22.0583 24.4425 21.1417L23.4841 19.55C23.2341 19.1167 23.0175 18.3417 23.0175 17.8333V15.425C23.0175 12.675 20.7675 10.425 18.0175 10.425Z" stroke="#48445B" stroke-width="1.5" stroke-miterlimit="10" stroke-linecap="round"/>
<path d="M19.5579 10.6666C19.2996 10.5916 19.0329 10.5333 18.7579 10.5C17.9579 10.4 17.1913 10.4583 16.4746 10.6666C16.7163 10.05 17.3163 9.61664 18.0163 9.61664C18.7163 9.61664 19.3163 10.05 19.5579 10.6666Z" stroke="#48445B" stroke-width="1.5" stroke-miterlimit="10" stroke-linecap="round" stroke-linejoin="round"/>
<path d="M20.5176 23.8834C20.5176 25.2584 19.3926 26.3834 18.0176 26.3834C17.3342 26.3834 16.7009 26.1 16.2509 25.65C15.8009 25.2 15.5176 24.5667 15.5176 23.8834" stroke="#48445B" stroke-width="1.5" stroke-miterlimit="10"/>
<rect x="0.5" y="0.5" width="35" height="35" rx="7.5" stroke="#DCDCDC"/>
</svg>
