<svg width="24" height="24" viewBox="0 0 24 24" fill="none" xmlns="http://www.w3.org/2000/svg">
<circle cx="12" cy="12" r="11.75" fill="white" stroke="#68676D" stroke-width="0.5"/>
<path d="M15.0567 18.2708H8.94332C7.30999 18.2708 6.27166 17.2966 6.17832 15.6691L5.87499 10.8566C5.82832 10.1275 6.07916 9.42746 6.58082 8.89663C7.07666 8.36579 7.77666 8.06246 8.49999 8.06246C8.68666 8.06246 8.86749 7.95163 8.95499 7.77663L9.37499 6.94246C9.71916 6.25996 10.5825 5.72913 11.335 5.72913H12.6708C13.4233 5.72913 14.2808 6.25996 14.625 6.93663L15.045 7.78829C15.1325 7.95163 15.3075 8.06246 15.5 8.06246C16.2233 8.06246 16.9233 8.36579 17.4192 8.89663C17.9208 9.43329 18.1717 10.1275 18.125 10.8566L17.8217 15.675C17.7167 17.3258 16.7075 18.2708 15.0567 18.2708ZM11.335 6.60413C10.9033 6.60413 10.355 6.94246 10.1567 7.33329L9.73666 8.17329C9.49166 8.64579 9.01916 8.93746 8.49999 8.93746C8.00999 8.93746 7.55499 9.13579 7.21666 9.49163C6.88416 9.84746 6.71499 10.3141 6.74999 10.7983L7.05332 15.6166C7.12332 16.795 7.75916 17.3958 8.94332 17.3958H15.0567C16.235 17.3958 16.8708 16.795 16.9467 15.6166L17.25 10.7983C17.2792 10.3141 17.1158 9.84746 16.7833 9.49163C16.445 9.13579 15.99 8.93746 15.5 8.93746C14.9808 8.93746 14.5083 8.64579 14.2633 8.18496L13.8375 7.33329C13.645 6.94829 13.0967 6.60996 12.665 6.60996H11.335V6.60413Z" fill="#68676D"/>
<path d="M12.875 10.1041H11.125C10.8858 10.1041 10.6875 9.90579 10.6875 9.66663C10.6875 9.42746 10.8858 9.22913 11.125 9.22913H12.875C13.1142 9.22913 13.3125 9.42746 13.3125 9.66663C13.3125 9.90579 13.1142 10.1041 12.875 10.1041Z" fill="#68676D"/>
<path d="M12 15.9375C10.7108 15.9375 9.66666 14.8934 9.66666 13.6042C9.66666 12.315 10.7108 11.2709 12 11.2709C13.2892 11.2709 14.3333 12.315 14.3333 13.6042C14.3333 14.8934 13.2892 15.9375 12 15.9375ZM12 12.1459C11.195 12.1459 10.5417 12.7992 10.5417 13.6042C10.5417 14.4092 11.195 15.0625 12 15.0625C12.805 15.0625 13.4583 14.4092 13.4583 13.6042C13.4583 12.7992 12.805 12.1459 12 12.1459Z" fill="#68676D"/>
</svg>
