<svg width="32" height="32" viewBox="0 0 32 32" fill="none" xmlns="http://www.w3.org/2000/svg">
<path d="M25.6533 7.44H25.12L20.6133 2.93333C20.2533 2.57333 19.6666 2.57333 19.2933 2.93333C18.9333 3.29333 18.9333 3.88 19.2933 4.25333L22.48 7.44H9.51996L12.7066 4.25333C13.0666 3.89333 13.0666 3.30666 12.7066 2.93333C12.3466 2.57333 11.76 2.57333 11.3866 2.93333L6.89329 7.44H6.35996C5.15996 7.44 2.66663 7.44 2.66663 10.8533C2.66663 12.1467 2.93329 13 3.49329 13.56C3.81329 13.8933 4.19996 14.0667 4.61329 14.16C4.99996 14.2533 5.41329 14.2667 5.81329 14.2667H26.1866C26.6 14.2667 26.9866 14.24 27.36 14.16C28.48 13.8933 29.3333 13.0933 29.3333 10.8533C29.3333 7.44 26.84 7.44 25.6533 7.44Z" fill="#292D32"/>
<path d="M25.4 16H6.49334C5.66667 16 5.04 16.7333 5.17334 17.5467L6.29334 24.4C6.66667 26.6933 7.66667 29.3333 12.1067 29.3333H19.5867C24.08 29.3333 24.88 27.08 25.36 24.56L26.7067 17.5867C26.8667 16.76 26.24 16 25.4 16ZM16 26C12.88 26 10.3333 23.4533 10.3333 20.3333C10.3333 19.7867 10.7867 19.3333 11.3333 19.3333C11.88 19.3333 12.3333 19.7867 12.3333 20.3333C12.3333 22.36 13.9733 24 16 24C18.0267 24 19.6667 22.36 19.6667 20.3333C19.6667 19.7867 20.12 19.3333 20.6667 19.3333C21.2133 19.3333 21.6667 19.7867 21.6667 20.3333C21.6667 23.4533 19.12 26 16 26Z" fill="#292D32"/>
</svg>
