<svg width="32" height="32" viewBox="0 0 32 32" fill="none" xmlns="http://www.w3.org/2000/svg">
<path d="M16 24.6667C12.88 24.6667 10.3334 22.12 10.3334 19C10.3334 18.4533 10.7867 18 11.3334 18C11.88 18 12.3334 18.4533 12.3334 19C12.3334 21.0267 13.9734 22.6667 16 22.6667C18.0267 22.6667 19.6667 21.0267 19.6667 19C19.6667 18.4533 20.12 18 20.6667 18C21.2134 18 21.6667 18.4533 21.6667 19C21.6667 22.12 19.12 24.6667 16 24.6667Z" fill="#292D32"/>
<path d="M6.92001 8.50668C6.66667 8.50668 6.40001 8.40001 6.21334 8.21335C5.82667 7.82668 5.82667 7.18668 6.21334 6.80001L11.0533 1.96001C11.44 1.57335 12.08 1.57335 12.4667 1.96001C12.8533 2.34668 12.8533 2.98668 12.4667 3.37335L7.62667 8.21335C7.42667 8.40001 7.17334 8.50668 6.92001 8.50668Z" fill="#292D32"/>
<path d="M25.08 8.50668C24.8266 8.50668 24.5733 8.41335 24.3733 8.21335L19.5333 3.37335C19.1466 2.98668 19.1466 2.34668 19.5333 1.96001C19.92 1.57335 20.56 1.57335 20.9466 1.96001L25.7866 6.80001C26.1733 7.18668 26.1733 7.82668 25.7866 8.21335C25.6 8.40001 25.3333 8.50668 25.08 8.50668Z" fill="#292D32"/>
<path d="M26.9466 14.1333C26.8533 14.1333 26.76 14.1333 26.6666 14.1333H26.36H5.33329C4.39996 14.1467 3.33329 14.1467 2.55996 13.3733C1.94663 12.7733 1.66663 11.84 1.66663 10.4667C1.66663 6.79999 4.34663 6.79999 5.62663 6.79999H26.3733C27.6533 6.79999 30.3333 6.79999 30.3333 10.4667C30.3333 11.8533 30.0533 12.7733 29.44 13.3733C28.7466 14.0667 27.8133 14.1333 26.9466 14.1333ZM5.62663 12.1333H26.68C27.28 12.1467 27.84 12.1467 28.0266 11.96C28.12 11.8667 28.32 11.5467 28.32 10.4667C28.32 8.95999 27.9466 8.79999 26.36 8.79999H5.62663C4.03996 8.79999 3.66663 8.95999 3.66663 10.4667C3.66663 11.5467 3.87996 11.8667 3.95996 11.96C4.14663 12.1333 4.71996 12.1333 5.30663 12.1333H5.62663Z" fill="#292D32"/>
<path d="M19.8533 30.3333H11.8133C7.03996 30.3333 5.97329 27.4933 5.55996 25.0267L3.67996 13.4933C3.58662 12.9467 3.95996 12.44 4.50662 12.3467C5.03996 12.2533 5.55996 12.6267 5.65329 13.1733L7.53329 24.6933C7.91996 27.0533 8.71996 28.3333 11.8133 28.3333H19.8533C23.28 28.3333 23.6666 27.1333 24.1066 24.8133L26.3466 13.1467C26.4533 12.6 26.9733 12.24 27.52 12.36C28.0666 12.4667 28.4133 12.9867 28.3066 13.5333L26.0666 25.2C25.5466 27.9067 24.68 30.3333 19.8533 30.3333Z" fill="#292D32"/>
</svg>
