<svg width="30" height="30" viewBox="0 0 30 30" fill="none" xmlns="http://www.w3.org/2000/svg">
<rect width="30" height="30" rx="8" fill="#A85CF9"/>
<mask id="mask0_603_301" style="mask-type:alpha" maskUnits="userSpaceOnUse" x="5" y="5" width="20" height="20">
<rect x="5" y="5" width="20" height="20" fill="#C4C4C4"/>
</mask>
<g mask="url(#mask0_603_301)">
<path d="M19.5 14.0625C19.1925 14.0625 18.9375 13.8075 18.9375 13.5V12C18.9375 9.6375 18.27 8.0625 15 8.0625C11.73 8.0625 11.0625 9.6375 11.0625 12V13.5C11.0625 13.8075 10.8075 14.0625 10.5 14.0625C10.1925 14.0625 9.9375 13.8075 9.9375 13.5V12C9.9375 9.825 10.4625 6.9375 15 6.9375C19.5375 6.9375 20.0625 9.825 20.0625 12V13.5C20.0625 13.8075 19.8075 14.0625 19.5 14.0625Z" fill="white"/>
<path d="M18.75 22.5625H11.25C9.61347 22.5625 8.71958 22.3056 8.20699 21.793C7.6944 21.2804 7.4375 20.3865 7.4375 18.75V17.25C7.4375 15.6135 7.6944 14.7196 8.20699 14.207C8.71958 13.6944 9.61347 13.4375 11.25 13.4375H18.75C20.3865 13.4375 21.2804 13.6944 21.793 14.207C22.3056 14.7196 22.5625 15.6135 22.5625 17.25V18.75C22.5625 20.3865 22.3056 21.2804 21.793 21.793C21.2804 22.3056 20.3865 22.5625 18.75 22.5625ZM11.25 13.5625C10.5699 13.5625 9.99295 13.5941 9.51595 13.6948C9.03338 13.7967 8.61727 13.9765 8.29546 14.299C7.97371 14.6214 7.79479 15.0377 7.69363 15.5197C7.59363 15.9961 7.5625 16.572 7.5625 17.25V18.75C7.5625 19.428 7.59363 20.0039 7.69363 20.4803C7.79479 20.9623 7.97371 21.3786 8.29546 21.701C8.61727 22.0235 9.03338 22.2033 9.51595 22.3052C9.99295 22.4059 10.5699 22.4375 11.25 22.4375H18.75C19.4301 22.4375 20.0071 22.4059 20.4841 22.3052C20.9666 22.2033 21.3827 22.0235 21.7045 21.701C22.0263 21.3786 22.2052 20.9623 22.3064 20.4803C22.4064 20.0039 22.4375 19.428 22.4375 18.75V17.25C22.4375 16.572 22.4064 15.9961 22.3064 15.5197C22.2052 15.0377 22.0263 14.6214 21.7045 14.299C21.3827 13.9765 20.9666 13.7967 20.4841 13.6948C20.0071 13.5941 19.4301 13.5625 18.75 13.5625H11.25Z" fill="white" stroke="white"/>
<path d="M12 18.7501C11.9025 18.7501 11.805 18.7277 11.715 18.6902C11.6175 18.6527 11.5425 18.6001 11.4675 18.5326C11.3325 18.3901 11.25 18.2026 11.25 18.0001C11.25 17.9026 11.2725 17.8051 11.31 17.7151C11.3475 17.6176 11.4 17.5427 11.4675 17.4677C11.5425 17.4002 11.6175 17.3476 11.715 17.3101C11.985 17.1901 12.3225 17.2577 12.5325 17.4677C12.6 17.5427 12.6525 17.6251 12.69 17.7151C12.7275 17.8051 12.75 17.9026 12.75 18.0001C12.75 18.1951 12.6675 18.3901 12.5325 18.5326C12.39 18.6676 12.195 18.7501 12 18.7501Z" fill="white"/>
<path d="M15 18.7497C14.805 18.7497 14.61 18.6672 14.4675 18.5322C14.3325 18.3897 14.25 18.2022 14.25 17.9997C14.25 17.9022 14.265 17.8047 14.31 17.7147C14.3475 17.6247 14.4 17.5422 14.4675 17.4672C14.64 17.2947 14.9025 17.2122 15.1425 17.2647C15.195 17.2722 15.24 17.2872 15.285 17.3097C15.33 17.3247 15.375 17.3472 15.42 17.3772C15.4575 17.3997 15.495 17.4372 15.5325 17.4672C15.6 17.5422 15.6525 17.6247 15.69 17.7147C15.7275 17.8047 15.75 17.9022 15.75 17.9997C15.75 18.2022 15.6675 18.3897 15.5325 18.5322C15.495 18.5622 15.4575 18.5922 15.42 18.6222C15.375 18.6522 15.33 18.6747 15.285 18.6897C15.24 18.7122 15.195 18.7272 15.1425 18.7347C15.0975 18.7422 15.045 18.7497 15 18.7497Z" fill="white"/>
<path d="M18 18.7497C17.7975 18.7497 17.61 18.6672 17.4675 18.5322C17.4 18.4572 17.3475 18.3747 17.31 18.2847C17.2725 18.1947 17.25 18.0972 17.25 17.9997C17.25 17.8047 17.3325 17.6097 17.4675 17.4672C17.505 17.4372 17.5425 17.4072 17.58 17.3772C17.625 17.3472 17.67 17.3247 17.715 17.3097C17.76 17.2872 17.805 17.2722 17.85 17.2647C18.0975 17.2122 18.3525 17.2947 18.5325 17.4672C18.6675 17.6097 18.75 17.7972 18.75 17.9997C18.75 18.0972 18.7275 18.1947 18.69 18.2847C18.6525 18.3822 18.6 18.4572 18.5325 18.5322C18.39 18.6672 18.195 18.7497 18 18.7497Z" fill="white"/>
</g>
</svg>
