<svg width="24" height="24" viewBox="0 0 24 24" fill="none" xmlns="http://www.w3.org/2000/svg">
<g clip-path="url(#clip0_3_7781)">
<path d="M24 5.00005C24 2.79405 22.206 1.00005 20 1.00005C17.794 1.00005 16 2.79405 16 5.00005C16 6.86005 17.277 8.42805 19 8.87305V15C19 16.654 17.654 18 16 18H12.631L14.834 15.797C15.225 15.406 15.225 14.774 14.834 14.383C14.443 13.9921 13.811 13.9921 13.42 14.383L10.879 16.924C10.33 17.472 10 18 10 19C10 20 10.297 20.585 10.879 21.167L13.42 23.708C13.615 23.903 13.871 24.001 14.127 24.001C14.383 24.001 14.639 23.903 14.834 23.708C15.225 23.317 15.225 22.6851 14.834 22.2941L12.541 20.001H16C18.757 20.001 21 17.758 21 15.001V8.87405C22.723 8.42905 24 6.86105 24 5.00105V5.00005ZM20 7.00005C18.897 7.00005 18 6.10305 18 5.00005C18 3.89705 18.897 3.00005 20 3.00005C21.103 3.00005 22 3.89705 22 5.00005C22 6.10305 21.103 7.00005 20 7.00005ZM13.204 7.12205C13.771 6.55505 14.083 5.80205 14.083 5.00005C14.083 4.19805 13.771 3.44505 13.204 2.87905L10.663 0.33805C10.272 -0.0529502 9.64 -0.0529502 9.249 0.33805C8.858 0.72905 8.858 1.36105 9.249 1.75205L11.496 4.00005H8C5.243 4.00005 3 6.24305 3 9.00005V15.127C1.277 15.572 0 17.14 0 19C0 21.206 1.794 23 4 23C6.206 23 8 21.206 8 19C8 17.14 6.723 15.572 5 15.127V9.00005C5 7.34605 6.346 6.00005 8 6.00005H11.497L9.249 8.24805C8.858 8.63905 8.858 9.27105 9.249 9.66205C9.444 9.85705 9.7 9.95505 9.956 9.95505C10.212 9.95505 10.468 9.85705 10.663 9.66205L13.204 7.12205ZM6 19C6 20.1031 5.103 21 4 21C2.897 21 2 20.1031 2 19C2 17.897 2.897 17 4 17C5.103 17 6 17.897 6 19Z" fill="black"/>
</g>
<defs>
<clipPath id="clip0_3_7781">
<rect width="24" height="24" fill="white"/>
</clipPath>
</defs>
</svg>
