<svg width="30" height="30" viewBox="0 0 30 30" fill="none" xmlns="http://www.w3.org/2000/svg">
<rect width="30" height="30" rx="8" fill="#3E8E7E"/>
<mask id="mask0_603_260" style="mask-type:alpha" maskUnits="userSpaceOnUse" x="5" y="5" width="20" height="20">
<rect x="5" y="5" width="20" height="20" fill="#C4C4C4"/>
</mask>
<g mask="url(#mask0_603_260)">
<path d="M15.0904 16.1479C15.0754 16.1479 15.0529 16.1479 15.0379 16.1479C15.0154 16.1479 14.9854 16.1479 14.9629 16.1479C13.2604 16.0954 11.9854 14.7679 11.9854 13.1329C11.9854 11.4679 13.3429 10.1104 15.0079 10.1104C16.6729 10.1104 18.0304 11.4679 18.0304 13.1329C18.0229 14.7754 16.7404 16.0954 15.1129 16.1479C15.0979 16.1479 15.0979 16.1479 15.0904 16.1479ZM15.0004 11.2279C13.9504 11.2279 13.1029 12.0829 13.1029 13.1254C13.1029 14.1529 13.9054 14.9854 14.9254 15.0229C14.9479 15.0154 15.0229 15.0154 15.0979 15.0229C16.1029 14.9704 16.8904 14.1454 16.8979 13.1254C16.8979 12.0829 16.0504 11.2279 15.0004 11.2279Z" fill="white"/>
<path d="M9.89957 20.5788L9.89961 20.5787L9.89431 20.574C9.89283 20.5727 9.88884 20.5686 9.88515 20.5586C9.88148 20.5486 9.8793 20.5357 9.88002 20.522C9.96031 19.8109 10.4088 19.1018 11.2341 18.5515C12.2531 17.8746 13.6157 17.5215 15.0024 17.5215C16.3889 17.5215 17.7489 17.8744 18.7637 18.5505C19.5952 19.112 20.0423 19.8177 20.1201 20.5295L20.12 20.5295L20.121 20.5373C20.122 20.5457 20.1209 20.551 20.1194 20.5549C20.1178 20.559 20.1141 20.5659 20.105 20.574L20.1049 20.574L20.0997 20.5788C18.699 21.8598 16.8918 22.5627 14.9996 22.5627C13.1075 22.5627 11.3002 21.8598 9.89957 20.5788ZM10.0801 20.1837L9.9873 20.4981L10.2386 20.7086C11.5737 21.8265 13.2548 22.4377 14.9996 22.4377C16.7444 22.4377 18.4256 21.8265 19.7606 20.7086L20.012 20.4981L19.9192 20.1837C19.7417 19.5821 19.288 19.0538 18.6922 18.651L18.6922 18.651L18.6895 18.6492C17.6654 17.9665 16.319 17.6427 15.0015 17.6427C13.6838 17.6427 12.3345 17.9666 11.3038 18.6482L11.3038 18.6482L11.2996 18.651C10.7002 19.0562 10.2567 19.5852 10.0801 20.1837Z" fill="white" stroke="white"/>
<path d="M15 23.0625C10.5525 23.0625 6.9375 19.4475 6.9375 15C6.9375 10.5525 10.5525 6.9375 15 6.9375C19.4475 6.9375 23.0625 10.5525 23.0625 15C23.0625 19.4475 19.4475 23.0625 15 23.0625ZM15 8.0625C11.175 8.0625 8.0625 11.175 8.0625 15C8.0625 18.825 11.175 21.9375 15 21.9375C18.825 21.9375 21.9375 18.825 21.9375 15C21.9375 11.175 18.825 8.0625 15 8.0625Z" fill="white"/>
</g>
</svg>
