<svg width="21" height="21" viewBox="0 0 21 21" fill="none" xmlns="http://www.w3.org/2000/svg">
<g clip-path="url(#clip0_104_15366)">
<path d="M20 11.0103C20 16.0224 16.343 20.1767 11.5625 20.9298V13.9129H13.8926L14.3359 11.0103H11.5625V9.12669C11.5625 8.33239 11.95 7.55849 13.1922 7.55849H14.4531V5.08733C14.4531 5.08733 13.3086 4.89121 12.2145 4.89121C9.93047 4.89121 8.4375 6.28133 8.4375 8.79798V11.0103H5.89844V13.9129H8.4375V20.9298C3.65703 20.1767 0 16.0224 0 11.0103C0 5.46467 4.47734 0.96875 10 0.96875C15.5227 0.96875 20 5.46467 20 11.0103Z" fill="#1877F2"/>
</g>
<defs>
<clipPath id="clip0_104_15366">
<rect width="20.0612" height="19.961" fill="white" transform="translate(0.217163 0.96875)"/>
</clipPath>
</defs>
</svg>
