<svg width="30" height="30" viewBox="0 0 30 30" fill="none" xmlns="http://www.w3.org/2000/svg">
<rect width="30" height="30" rx="8" fill="#4D77FF"/>
<mask id="mask0_441_2340" style="mask-type:alpha" maskUnits="userSpaceOnUse" x="5" y="5" width="20" height="20">
<rect x="5" y="5" width="20" height="20" fill="#C4C4C4"/>
</mask>
<g mask="url(#mask0_441_2340)">
<path d="M22.0013 14.512C21.7045 14.512 19.5593 14.512 19.2181 14.512V9.31185C19.2181 8.68359 18.707 8.17253 18.0788 8.17253C17.7939 8.17253 15.5548 8.17253 15.2432 8.17253C15.0485 7.31152 14.2777 6.66699 13.359 6.66699C12.4404 6.66699 11.6696 7.31152 11.4749 8.17253C11.1635 8.17253 8.92422 8.17253 8.63932 8.17253C8.01107 8.17253 7.5 8.68359 7.5 9.31185V22.1943C7.5 22.8226 8.01107 23.3337 8.63932 23.3337H22.0013C22.6296 23.3337 23.1406 22.8226 23.1406 22.1943V15.6514C23.1406 15.0231 22.6296 14.512 22.0013 14.512ZM19.6354 15.4886V16.9385C19.1548 16.6438 19.2368 16.694 19.1546 16.6439C18.8926 16.4837 18.5671 16.4837 18.3044 16.6442C18.223 16.6939 18.3047 16.6439 17.8242 16.9385V15.4886H19.6354ZM10.8525 9.14909H11.9173C12.1949 9.14909 12.4168 8.91774 12.4053 8.63997C12.3799 8.1085 12.8087 7.64355 13.359 7.64355C13.9053 7.64355 14.3384 8.10397 14.3128 8.63997C14.3013 8.91839 14.5239 9.14909 14.8008 9.14909H15.8656V10.3809C15.8656 10.4704 15.7926 10.5436 15.7028 10.5436H11.0153C10.9255 10.5436 10.8525 10.4704 10.8525 10.3809V9.14909ZM14.3307 22.3571H8.63932C8.54948 22.3571 8.47656 22.2842 8.47656 22.1943V9.31185C8.47656 9.222 8.54948 9.14909 8.63932 9.14909H9.87598V10.3809C9.87598 11.0091 10.387 11.5202 11.0153 11.5202H15.7028C16.3311 11.5202 16.8421 11.0091 16.8421 10.3809V9.14909H18.0788C18.1686 9.14909 18.2415 9.222 18.2415 9.31185V14.512C17.8985 14.512 15.7235 14.512 15.4583 14.512C14.8301 14.512 14.319 15.0231 14.319 15.6514V22.1943C14.319 22.2497 14.3229 22.304 14.3307 22.3571ZM22.1641 22.1943C22.1641 22.2842 22.0911 22.3571 22.0013 22.3571C21.8234 22.3571 15.5266 22.3571 15.4583 22.3571C15.3688 22.3571 15.2956 22.2842 15.2956 22.1943V15.6514C15.2956 15.5615 15.3688 15.4886 15.4583 15.4886H16.8477V17.2295C16.8477 17.6768 17.2101 18.043 17.6615 18.043C17.9231 18.043 18.0677 17.9348 18.2415 17.8281L18.7298 17.529L19.2181 17.8281C19.3519 17.9101 19.7318 18.199 20.1956 17.9398C20.4525 17.7959 20.612 17.5238 20.612 17.2295V15.4886H22.0013C22.0911 15.4886 22.1641 15.5615 22.1641 15.6514V22.1943Z" fill="white"/>
<path d="M19.8805 19.7119C19.6654 19.7119 17.8415 19.7119 17.5801 19.7119C17.3102 19.7119 17.0918 19.9303 17.0918 20.2002C17.0918 20.4697 17.3102 20.6885 17.5801 20.6885H19.8805C20.1501 20.6885 20.3688 20.4697 20.3688 20.2002C20.3688 19.9303 20.1501 19.7119 19.8805 19.7119Z" fill="white"/>
<path d="M11.6574 15.9737L10.6691 16.9099L10.3867 16.6422C10.191 16.4567 9.8819 16.465 9.69638 16.6607C9.51087 16.8565 9.51917 17.1655 9.71491 17.351L10.3331 17.937C10.5214 18.1154 10.8164 18.1155 11.0048 17.937L12.329 16.6827C12.5248 16.4972 12.5332 16.1882 12.3477 15.9924C12.1623 15.7966 11.8532 15.7882 11.6574 15.9737Z" fill="white"/>
<path d="M11.6574 12.6856L10.6691 13.6218L10.3867 13.3541C10.191 13.1686 9.8819 13.1769 9.69638 13.3727C9.51087 13.5684 9.51917 13.8774 9.71491 14.063L10.3331 14.6489C10.5214 14.8273 10.8164 14.8274 11.0048 14.649L12.329 13.3946C12.5248 13.2091 12.5332 12.9001 12.3477 12.7043C12.1623 12.5085 11.8532 12.5001 11.6574 12.6856Z" fill="white"/>
<path d="M11.6574 19.2607L10.6691 20.197L10.3867 19.9293C10.191 19.7438 9.8819 19.7521 9.69638 19.9478C9.51087 20.1435 9.51917 20.4526 9.71491 20.6381L10.3331 21.224C10.5214 21.4025 10.8164 21.4026 11.0048 21.2241L12.329 19.9697C12.5248 19.7843 12.5332 19.4752 12.3477 19.2794C12.1622 19.0837 11.8532 19.0753 11.6574 19.2607Z" fill="white"/>
<path d="M16.6685 13.5039C16.9382 13.5039 17.1568 13.2853 17.1568 13.0156C17.1568 12.746 16.9382 12.5273 16.6685 12.5273H14.3633C14.0936 12.5273 13.875 12.746 13.875 13.0156C13.875 13.2853 14.0936 13.5039 14.3633 13.5039H16.6685Z" fill="white"/>
</g>
</svg>
