<svg width="26" height="25" viewBox="0 0 26 25" fill="none" xmlns="http://www.w3.org/2000/svg">
<path d="M24.8108 16.7894C25.3903 17.3705 25.7157 18.1577 25.7157 18.9784C25.7157 19.7991 25.3903 20.5863 24.8108 21.1674L23.9008 22.2164C15.7108 30.0574 -4.21924 10.1324 3.50076 1.91643L4.65076 0.916425C5.23253 0.353103 6.01269 0.0414742 6.82246 0.0489599C7.63224 0.0564457 8.4065 0.382444 8.97776 0.956425C9.00876 0.987425 10.8618 3.39443 10.8618 3.39443C11.4116 3.97205 11.7177 4.73935 11.7164 5.53683C11.7151 6.3343 11.4065 7.1006 10.8548 7.67643L9.69676 9.13243C10.3376 10.6895 11.2798 12.1047 12.4693 13.2965C13.6587 14.4884 15.0719 15.4334 16.6278 16.0774L18.0928 14.9124C18.6687 14.3611 19.4348 14.0529 20.2321 14.0518C21.0293 14.0507 21.7963 14.3568 22.3738 14.9064C22.3738 14.9064 24.7798 16.7584 24.8108 16.7894ZM23.4348 18.2434C23.4348 18.2434 21.0418 16.4024 21.0108 16.3714C20.8047 16.1672 20.5264 16.0525 20.2363 16.0525C19.9461 16.0525 19.6678 16.1672 19.4618 16.3714C19.4348 16.3994 17.4178 18.0064 17.4178 18.0064C17.2818 18.1146 17.1201 18.1855 16.9484 18.2122C16.7767 18.2388 16.6011 18.2203 16.4388 18.1584C14.4232 17.408 12.5925 16.2332 11.0706 14.7135C9.54869 13.1938 8.37116 11.3649 7.61776 9.35043C7.55096 9.18588 7.52918 9.00651 7.55466 8.83076C7.58015 8.65501 7.65197 8.48922 7.76276 8.35043C7.76276 8.35043 9.36976 6.33243 9.39676 6.30643C9.60103 6.10041 9.71564 5.82204 9.71564 5.53193C9.71564 5.24181 9.60103 4.96344 9.39676 4.75743C9.36576 4.72743 7.52476 2.33243 7.52476 2.33243C7.31566 2.14493 7.04276 2.04452 6.76201 2.05177C6.48125 2.05902 6.2139 2.17339 6.01476 2.37143L4.86476 3.37143C-0.777241 10.1554 16.4938 26.4684 22.4388 20.8504L23.3498 19.8004C23.5632 19.6027 23.6915 19.3297 23.7073 19.0391C23.7232 18.7486 23.6254 18.4632 23.4348 18.2434Z" fill="#9F9DA8"/>
</svg>
