<svg width="33" height="32" viewBox="0 0 33 32" fill="none" xmlns="http://www.w3.org/2000/svg">
<path d="M27.2992 9.25335C27.2992 9.97335 26.9126 10.6267 26.2992 10.96L23.9792 12.2134L22.0059 13.2667L17.9126 15.48C17.4726 15.72 16.9926 15.84 16.4992 15.84C16.0059 15.84 15.5259 15.72 15.0859 15.48L6.69922 10.96C6.08589 10.6267 5.69922 9.97335 5.69922 9.25335C5.69922 8.53335 6.08589 7.88002 6.69922 7.54669L9.32588 6.13335L11.4192 5.00002L15.0859 3.02669C15.9659 2.54669 17.0326 2.54669 17.9126 3.02669L26.2992 7.54669C26.9126 7.88002 27.2992 8.53335 27.2992 9.25335Z" fill="#292D32"/>
<path d="M13.6983 17.0533L5.89833 13.16C5.29833 12.8533 4.605 12.8933 4.03167 13.24C3.45833 13.5867 3.125 14.2 3.125 14.8667V22.24C3.125 23.52 3.83167 24.6667 4.97833 25.24L12.7783 29.1333C13.045 29.2667 13.3383 29.3333 13.6317 29.3333C13.9783 29.3333 14.325 29.24 14.6317 29.04C15.205 28.6933 15.5383 28.08 15.5383 27.4133V20.04C15.5517 18.7733 14.845 17.6267 13.6983 17.0533Z" fill="#292D32"/>
<path d="M29.872 14.8667V22.24C29.872 23.5067 29.1653 24.6534 28.0186 25.2267L20.2186 29.1334C19.952 29.2667 19.6586 29.3334 19.3653 29.3334C19.0186 29.3334 18.672 29.24 18.352 29.04C17.792 28.6934 17.4453 28.08 17.4453 27.4134V20.0534C17.4453 18.7734 18.152 17.6267 19.2986 17.0534L22.1653 15.6267L24.1653 14.6267L27.0986 13.16C27.6986 12.8534 28.392 12.88 28.9653 13.24C29.5253 13.5867 29.872 14.2 29.872 14.8667Z" fill="#292D32"/>
<path d="M23.9815 12.2133L22.0081 13.2667L9.32812 6.13333L11.4215 5L23.6615 11.9067C23.7948 11.9867 23.9015 12.0933 23.9815 12.2133Z" fill="#292D32"/>
<path d="M24.168 14.6266V17.6533C24.168 18.2 23.7146 18.6533 23.168 18.6533C22.6213 18.6533 22.168 18.2 22.168 17.6533V15.6266L24.168 14.6266Z" fill="#292D32"/>
</svg>
