<svg width="33" height="32" viewBox="0 0 33 32" fill="none" xmlns="http://www.w3.org/2000/svg">
<path d="M4.72656 9.92004L16.4999 16.7334L28.1932 9.96" stroke="#292D32" stroke-width="1.5" stroke-linecap="round" stroke-linejoin="round"/>
<path d="M16.5 28.8134V16.72" stroke="#292D32" stroke-width="1.5" stroke-linecap="round" stroke-linejoin="round"/>
<path d="M13.7408 3.30669L6.62081 7.26673C5.00748 8.16006 3.6875 10.4 3.6875 12.24V19.7734C3.6875 21.6134 5.00748 23.8534 6.62081 24.7467L13.7408 28.7068C15.2608 29.5468 17.7541 29.5468 19.2741 28.7068L26.3942 24.7467C28.0075 23.8534 29.3275 21.6134 29.3275 19.7734V12.24C29.3275 10.4 28.0075 8.16006 26.3942 7.26673L19.2741 3.30669C17.7408 2.45335 15.2608 2.45335 13.7408 3.30669Z" stroke="#292D32" stroke-width="1.5" stroke-linecap="round" stroke-linejoin="round"/>
<path d="M23.165 17.6533V12.7733L10.5117 5.46661" stroke="#292D32" stroke-width="1.5" stroke-linecap="round" stroke-linejoin="round"/>
</svg>
