<svg width="30" height="30" viewBox="0 0 30 30" fill="none" xmlns="http://www.w3.org/2000/svg">
<rect width="30" height="30" rx="8" fill="#FF0041"/>
<g clip-path="url(#clip0_441_2476)">
<path d="M21.75 9H19.425C19.2509 8.15356 18.7904 7.39301 18.1209 6.84654C17.4515 6.30007 16.6142 6.00109 15.75 6L14.25 6C13.3858 6.00109 12.5485 6.30007 11.8791 6.84654C11.2096 7.39301 10.7491 8.15356 10.575 9H8.25C8.05109 9 7.86032 9.07902 7.71967 9.21967C7.57902 9.36032 7.5 9.55109 7.5 9.75C7.5 9.94891 7.57902 10.1397 7.71967 10.2803C7.86032 10.421 8.05109 10.5 8.25 10.5H9V20.25C9.00119 21.2442 9.39666 22.1973 10.0997 22.9003C10.8027 23.6033 11.7558 23.9988 12.75 24H17.25C18.2442 23.9988 19.1973 23.6033 19.9003 22.9003C20.6033 22.1973 20.9988 21.2442 21 20.25V10.5H21.75C21.9489 10.5 22.1397 10.421 22.2803 10.2803C22.421 10.1397 22.5 9.94891 22.5 9.75C22.5 9.55109 22.421 9.36032 22.2803 9.21967C22.1397 9.07902 21.9489 9 21.75 9ZM14.25 7.5H15.75C16.2152 7.50057 16.6688 7.64503 17.0487 7.91358C17.4286 8.18213 17.7161 8.56162 17.8717 9H12.1282C12.2839 8.56162 12.5714 8.18213 12.9513 7.91358C13.3312 7.64503 13.7848 7.50057 14.25 7.5ZM19.5 20.25C19.5 20.8467 19.2629 21.419 18.841 21.841C18.419 22.2629 17.8467 22.5 17.25 22.5H12.75C12.1533 22.5 11.581 22.2629 11.159 21.841C10.7371 21.419 10.5 20.8467 10.5 20.25V10.5H19.5V20.25Z" fill="white"/>
<path d="M13.5 19.5C13.6989 19.5 13.8897 19.421 14.0303 19.2803C14.171 19.1397 14.25 18.9489 14.25 18.75V14.25C14.25 14.0511 14.171 13.8603 14.0303 13.7197C13.8897 13.579 13.6989 13.5 13.5 13.5C13.3011 13.5 13.1103 13.579 12.9697 13.7197C12.829 13.8603 12.75 14.0511 12.75 14.25V18.75C12.75 18.9489 12.829 19.1397 12.9697 19.2803C13.1103 19.421 13.3011 19.5 13.5 19.5Z" fill="white"/>
<path d="M16.5 19.5C16.6989 19.5 16.8897 19.421 17.0303 19.2803C17.171 19.1397 17.25 18.9489 17.25 18.75V14.25C17.25 14.0511 17.171 13.8603 17.0303 13.7197C16.8897 13.579 16.6989 13.5 16.5 13.5C16.3011 13.5 16.1103 13.579 15.9697 13.7197C15.829 13.8603 15.75 14.0511 15.75 14.25V18.75C15.75 18.9489 15.829 19.1397 15.9697 19.2803C16.1103 19.421 16.3011 19.5 16.5 19.5Z" fill="white"/>
</g>
<defs>
<clipPath id="clip0_441_2476">
<rect x="6" y="6" width="18" height="18" rx="8" fill="white"/>
</clipPath>
</defs>
</svg>
