<svg width="32" height="32" viewBox="0 0 32 32" fill="none" xmlns="http://www.w3.org/2000/svg">
<path d="M29.3333 16C29.3333 8.65332 23.3466 2.66666 16 2.66666C8.65329 2.66666 2.66663 8.65332 2.66663 16C2.66663 19.8667 4.33329 23.3467 6.97329 25.7867C6.97329 25.8 6.97329 25.8 6.95996 25.8133C7.09329 25.9467 7.25329 26.0533 7.38663 26.1733C7.46663 26.24 7.53329 26.3067 7.61329 26.36C7.85329 26.56 8.11996 26.7467 8.37329 26.9333C8.46663 27 8.54663 27.0533 8.63996 27.12C8.89329 27.2933 9.15996 27.4533 9.43996 27.6C9.53329 27.6533 9.63996 27.72 9.73329 27.7733C9.99996 27.92 10.28 28.0533 10.5733 28.1733C10.68 28.2267 10.7866 28.28 10.8933 28.32C11.1866 28.44 11.48 28.5467 11.7733 28.64C11.88 28.68 11.9866 28.72 12.0933 28.7467C12.4133 28.84 12.7333 28.92 13.0533 29C13.1466 29.0267 13.24 29.0533 13.3466 29.0667C13.72 29.1467 14.0933 29.2 14.48 29.24C14.5333 29.24 14.5866 29.2533 14.64 29.2667C15.0933 29.3067 15.5466 29.3333 16 29.3333C16.4533 29.3333 16.9066 29.3067 17.3466 29.2667C17.4 29.2667 17.4533 29.2533 17.5066 29.24C17.8933 29.2 18.2666 29.1467 18.64 29.0667C18.7333 29.0533 18.8266 29.0133 18.9333 29C19.2533 28.92 19.5866 28.8533 19.8933 28.7467C20 28.7067 20.1066 28.6667 20.2133 28.64C20.5066 28.5333 20.8133 28.44 21.0933 28.32C21.2 28.28 21.3066 28.2267 21.4133 28.1733C21.6933 28.0533 21.9733 27.92 22.2533 27.7733C22.36 27.72 22.4533 27.6533 22.5466 27.6C22.8133 27.44 23.08 27.2933 23.3466 27.12C23.44 27.0667 23.52 27 23.6133 26.9333C23.88 26.7467 24.1333 26.56 24.3733 26.36C24.4533 26.2933 24.52 26.2267 24.6 26.1733C24.7466 26.0533 24.8933 25.9333 25.0266 25.8133C25.0266 25.8 25.0266 25.8 25.0133 25.7867C27.6666 23.3467 29.3333 19.8667 29.3333 16ZM22.5866 22.6267C18.9733 20.2 13.0533 20.2 9.41329 22.6267C8.82663 23.0133 8.34663 23.4667 7.94663 23.96C5.91996 21.9067 4.66663 19.0933 4.66663 16C4.66663 9.74666 9.74663 4.66666 16 4.66666C22.2533 4.66666 27.3333 9.74666 27.3333 16C27.3333 19.0933 26.08 21.9067 24.0533 23.96C23.6666 23.4667 23.1733 23.0133 22.5866 22.6267Z" fill="#292D32"/>
<path d="M16 9.23999C13.24 9.23999 11 11.48 11 14.24C11 16.9467 13.12 19.1467 15.9333 19.2267C15.9733 19.2267 16.0267 19.2267 16.0533 19.2267C16.08 19.2267 16.12 19.2267 16.1467 19.2267C16.16 19.2267 16.1733 19.2267 16.1733 19.2267C18.8667 19.1333 20.9867 16.9467 21 14.24C21 11.48 18.76 9.23999 16 9.23999Z" fill="#292D32"/>
</svg>
