<svg width="32" height="32" viewBox="0 0 32 32" fill="none" xmlns="http://www.w3.org/2000/svg">
<path d="M16.16 18.04C16.1333 18.04 16.0933 18.04 16.0667 18.04C16.0267 18.04 15.9733 18.04 15.9333 18.04C12.9067 17.9467 10.64 15.5867 10.64 12.68C10.64 9.72 13.0533 7.30667 16.0133 7.30667C18.9733 7.30667 21.3867 9.72 21.3867 12.68C21.3734 15.6 19.0933 17.9467 16.2 18.04C16.1733 18.04 16.1733 18.04 16.16 18.04ZM16 9.29334C14.1333 9.29334 12.6267 10.8133 12.6267 12.6667C12.6267 14.4933 14.0533 15.9733 15.8667 16.04C15.9067 16.0267 16.04 16.0267 16.1733 16.04C17.96 15.9467 19.36 14.48 19.3733 12.6667C19.3733 10.8133 17.8667 9.29334 16 9.29334Z" fill="#292D32"/>
<path d="M15.9999 30.3333C12.4133 30.3333 8.98661 29 6.33328 26.5733C6.09328 26.36 5.98661 26.04 6.01328 25.7333C6.18661 24.1467 7.17328 22.6667 8.81328 21.5733C12.7866 18.9333 19.2266 18.9333 23.1866 21.5733C24.8266 22.68 25.8133 24.1467 25.9866 25.7333C26.0266 26.0533 25.9066 26.36 25.6666 26.5733C23.0133 29 19.5866 30.3333 15.9999 30.3333ZM8.10661 25.4667C10.3199 27.32 13.1066 28.3333 15.9999 28.3333C18.8933 28.3333 21.6799 27.32 23.8933 25.4667C23.6533 24.6533 23.0133 23.8667 22.0666 23.2267C18.7866 21.04 13.2266 21.04 9.91994 23.2267C8.97328 23.8667 8.34661 24.6533 8.10661 25.4667Z" fill="#292D32"/>
<path d="M16 30.3333C8.09329 30.3333 1.66663 23.9067 1.66663 16C1.66663 8.09332 8.09329 1.66666 16 1.66666C23.9066 1.66666 30.3333 8.09332 30.3333 16C30.3333 23.9067 23.9066 30.3333 16 30.3333ZM16 3.66666C9.19996 3.66666 3.66663 9.19999 3.66663 16C3.66663 22.8 9.19996 28.3333 16 28.3333C22.8 28.3333 28.3333 22.8 28.3333 16C28.3333 9.19999 22.8 3.66666 16 3.66666Z" fill="#292D32"/>
</svg>
