<svg width="44" height="44" viewBox="0 0 44 44" fill="none" xmlns="http://www.w3.org/2000/svg">
<path d="M0 2C0 0.895431 0.895431 0 2 0H36C40.4183 0 44 3.58172 44 8V42C44 43.1046 43.1046 44 42 44H8C3.58172 44 0 40.4183 0 36V2Z" fill="white"/>
<path d="M21.5827 29.5003C25.9549 29.5003 29.4993 25.9559 29.4993 21.5837C29.4993 17.2114 25.9549 13.667 21.5827 13.667C17.2104 13.667 13.666 17.2114 13.666 21.5837C13.666 25.9559 17.2104 29.5003 21.5827 29.5003Z" stroke="#292D32" stroke-width="1.82143" stroke-linecap="round" stroke-linejoin="round"/>
<path d="M30.3337 30.3337L28.667 28.667" stroke="#292D32" stroke-width="1.82143" stroke-linecap="round" stroke-linejoin="round"/>
</svg>
