<svg width="30" height="30" viewBox="0 0 30 30" fill="none" xmlns="http://www.w3.org/2000/svg">
<path d="M0 1.09091C0 0.488417 0.488417 0 1.09091 0H25.6364C28.0463 0 30 1.95367 30 4.36364V28.9091C30 29.5116 29.5116 30 28.9091 30H4.36364C1.95367 30 0 28.0463 0 25.6364V1.09091Z" fill="#65C18C"/>
<mask id="mask0_458_559" style="mask-type:alpha" maskUnits="userSpaceOnUse" x="5" y="5" width="20" height="20">
<rect x="5" y="5" width="20" height="20" fill="#C4C4C4"/>
</mask>
<g mask="url(#mask0_458_559)">
<path d="M15.0002 16.6276C13.4027 16.6276 12.0977 15.3301 12.0977 13.7251C12.0977 12.1201 13.4027 10.8301 15.0002 10.8301C16.5977 10.8301 17.9027 12.1276 17.9027 13.7326C17.9027 15.3376 16.5977 16.6276 15.0002 16.6276ZM15.0002 11.9551C14.0252 11.9551 13.2227 12.7501 13.2227 13.7326C13.2227 14.7151 14.0177 15.5101 15.0002 15.5101C15.9827 15.5101 16.7777 14.7151 16.7777 13.7326C16.7777 12.7501 15.9752 11.9551 15.0002 11.9551Z" fill="white" style="mix-blend-mode:screen"/>
<path d="M15.0003 23.07C13.8903 23.07 12.7728 22.65 11.9028 21.8175C9.69025 19.6875 7.24525 16.29 8.16775 12.2475C9.00025 8.58 12.2028 6.9375 15.0003 6.9375C15.0003 6.9375 15.0003 6.9375 15.0078 6.9375C17.8053 6.9375 21.0078 8.58 21.8403 12.255C22.7553 16.2975 20.3103 19.6875 18.0978 21.8175C17.2278 22.65 16.1103 23.07 15.0003 23.07ZM15.0003 8.0625C12.8178 8.0625 10.0128 9.225 9.27025 12.495C8.46025 16.0275 10.6803 19.0725 12.6903 21C13.9878 22.2525 16.0203 22.2525 17.3178 21C19.3203 19.0725 21.5403 16.0275 20.7453 12.495C19.9953 9.225 17.1828 8.0625 15.0003 8.0625Z" fill="white" style="mix-blend-mode:screen"/>
</g>
</svg>
