<svg width="30" height="30" viewBox="0 0 30 30" fill="none" xmlns="http://www.w3.org/2000/svg">
<rect width="30" height="30" rx="8" fill="#DF6058"/>
<g clip-path="url(#clip0_441_2488)">
<path d="M20.175 6.00015H9.825C8.82077 5.99115 7.854 6.38096 7.13688 7.08402C6.41976 7.78708 6.01089 8.74594 6 9.75015L6 12.0002C6 12.1991 6.07902 12.3898 6.21967 12.5305C6.36032 12.6711 6.55109 12.7502 6.75 12.7502C6.94891 12.7502 7.13968 12.6711 7.28033 12.5305C7.42098 12.3898 7.5 12.1991 7.5 12.0002V9.75015C7.51065 9.1437 7.76142 8.56623 8.19728 8.14443C8.63315 7.72262 9.21852 7.49092 9.825 7.50015H20.175C20.7815 7.49092 21.3669 7.72262 21.8027 8.14443C22.2386 8.56623 22.4893 9.1437 22.5 9.75015V20.2502C22.4893 20.8566 22.2386 21.4341 21.8027 21.8559C21.3669 22.2777 20.7815 22.5094 20.175 22.5002H9.825C9.21852 22.5094 8.63315 22.2777 8.19728 21.8559C7.76142 21.4341 7.51065 20.8566 7.5 20.2502V18.0002C7.5 17.8012 7.42098 17.6105 7.28033 17.4698C7.13968 17.3292 6.94891 17.2502 6.75 17.2502C6.55109 17.2502 6.36032 17.3292 6.21967 17.4698C6.07902 17.6105 6 17.8012 6 18.0002V20.2502C6.01089 21.2544 6.41976 22.2132 7.13688 22.9163C7.854 23.6193 8.82077 24.0092 9.825 24.0002H20.175C21.1792 24.0092 22.146 23.6193 22.8631 22.9163C23.5802 22.2132 23.9891 21.2544 24 20.2502V9.75015C23.9891 8.74594 23.5802 7.78708 22.8631 7.08402C22.146 6.38096 21.1792 5.99115 20.175 6.00015Z" fill="white"/>
<path d="M9 15.2408C9 15.4397 9.07902 15.6305 9.21967 15.7711C9.36032 15.9118 9.55109 15.9908 9.75 15.9908L19.641 15.9683L16.3987 19.2105C16.3271 19.2797 16.27 19.3625 16.2307 19.454C16.1914 19.5455 16.1707 19.6439 16.1698 19.7435C16.1689 19.8431 16.1879 19.9418 16.2256 20.034C16.2633 20.1262 16.319 20.2099 16.3895 20.2803C16.4599 20.3507 16.5436 20.4064 16.6358 20.4442C16.728 20.4819 16.8267 20.5008 16.9263 20.5C17.0259 20.4991 17.1243 20.4784 17.2158 20.4391C17.3073 20.3998 17.3901 20.3427 17.4593 20.271L20.8988 16.8315C21.3206 16.4096 21.5575 15.8374 21.5575 15.2408C21.5575 14.6442 21.3206 14.072 20.8988 13.65L17.4608 10.2105C17.3193 10.0739 17.1298 9.99832 16.9332 10C16.7366 10.0017 16.5484 10.0806 16.4094 10.2197C16.2703 10.3587 16.1915 10.5468 16.1897 10.7435C16.188 10.9401 16.2636 11.1296 16.4002 11.271L19.5968 14.4683L9.75 14.4908C9.55109 14.4908 9.36032 14.5698 9.21967 14.7105C9.07902 14.8511 9 15.0419 9 15.2408Z" fill="white"/>
</g>
<defs>
<clipPath id="clip0_441_2488">
<rect width="18" height="18" fill="white" transform="translate(6 6)"/>
</clipPath>
</defs>
</svg>
