<svg width="30" height="30" viewBox="0 0 30 30" fill="none" xmlns="http://www.w3.org/2000/svg">
<rect width="30" height="30" rx="8" fill="#FF805D"/>
<g clip-path="url(#clip0_441_2504)">
<path d="M18 6H17.9025C17.5668 6.00319 17.2418 6.11776 16.9783 6.32572C16.7148 6.53369 16.5278 6.82327 16.4467 7.149C16.3599 7.46613 16.1713 7.74594 15.9099 7.94539C15.6485 8.14484 15.3288 8.25288 15 8.25288C14.6712 8.25288 14.3515 8.14484 14.0901 7.94539C13.8287 7.74594 13.6401 7.46613 13.5533 7.149C13.4722 6.82327 13.2852 6.53369 13.0217 6.32572C12.7582 6.11776 12.4332 6.00319 12.0975 6H12C11.0058 6.00119 10.0527 6.39666 9.34966 7.09966C8.64666 7.80267 8.25119 8.7558 8.25 9.75V21.75C8.25 22.3467 8.48705 22.919 8.90901 23.341C9.33097 23.7629 9.90326 24 10.5 24H12.0975C12.4332 23.9968 12.7582 23.8822 13.0217 23.6743C13.2852 23.4663 13.4722 23.1767 13.5533 22.851C13.6401 22.5339 13.8287 22.2541 14.0901 22.0546C14.3515 21.8552 14.6712 21.7471 15 21.7471C15.3288 21.7471 15.6485 21.8552 15.9099 22.0546C16.1713 22.2541 16.3599 22.5339 16.4467 22.851C16.5278 23.1767 16.7148 23.4663 16.9783 23.6743C17.2418 23.8822 17.5668 23.9968 17.9025 24H19.5C20.0967 24 20.669 23.7629 21.091 23.341C21.5129 22.919 21.75 22.3467 21.75 21.75V9.75C21.7488 8.7558 21.3533 7.80267 20.6503 7.09966C19.9473 6.39666 18.9942 6.00119 18 6V6ZM19.5 22.5L17.8927 22.4528C17.7166 21.8163 17.3354 21.2558 16.8082 20.8581C16.281 20.4604 15.6373 20.2477 14.977 20.2531C14.3167 20.2585 13.6765 20.4816 13.1559 20.8879C12.6353 21.2941 12.2633 21.8608 12.0975 22.5H10.5C10.3011 22.5 10.1103 22.421 9.96967 22.2803C9.82902 22.1397 9.75 21.9489 9.75 21.75V18.75H11.25C11.4489 18.75 11.6397 18.671 11.7803 18.5303C11.921 18.3897 12 18.1989 12 18C12 17.8011 11.921 17.6103 11.7803 17.4697C11.6397 17.329 11.4489 17.25 11.25 17.25H9.75V9.75C9.75 9.15326 9.98705 8.58097 10.409 8.15901C10.831 7.73705 11.4033 7.5 12 7.5L12.1072 7.54725C12.2829 8.17982 12.6607 8.73753 13.1831 9.13526C13.7054 9.53299 14.3435 9.74889 15 9.75C15.6654 9.74434 16.3107 9.52148 16.8377 9.11532C17.3648 8.70917 17.7447 8.14196 17.9198 7.5H18C18.5967 7.5 19.169 7.73705 19.591 8.15901C20.0129 8.58097 20.25 9.15326 20.25 9.75V17.25H18.75C18.5511 17.25 18.3603 17.329 18.2197 17.4697C18.079 17.6103 18 17.8011 18 18C18 18.1989 18.079 18.3897 18.2197 18.5303C18.3603 18.671 18.5511 18.75 18.75 18.75H20.25V21.75C20.25 21.9489 20.171 22.1397 20.0303 22.2803C19.8897 22.421 19.6989 22.5 19.5 22.5Z" fill="white"/>
<path d="M15.75 17.25H14.25C14.0511 17.25 13.8603 17.329 13.7197 17.4697C13.579 17.6103 13.5 17.8011 13.5 18C13.5 18.1989 13.579 18.3897 13.7197 18.5303C13.8603 18.671 14.0511 18.75 14.25 18.75H15.75C15.9489 18.75 16.1397 18.671 16.2803 18.5303C16.421 18.3897 16.5 18.1989 16.5 18C16.5 17.8011 16.421 17.6103 16.2803 17.4697C16.1397 17.329 15.9489 17.25 15.75 17.25Z" fill="white"/>
</g>
<defs>
<clipPath id="clip0_441_2504">
<rect width="18" height="18" fill="white" transform="translate(6 6)"/>
</clipPath>
</defs>
</svg>
