<svg width="24" height="24" viewBox="0 0 24 24" fill="none" xmlns="http://www.w3.org/2000/svg">
<g clip-path="url(#clip0_450_2126)">
<path d="M21 4H17.9C17.6679 2.87141 17.0538 1.85735 16.1613 1.12872C15.2687 0.40009 14.1522 0.00145452 13 0L11 0C9.8478 0.00145452 8.73132 0.40009 7.83875 1.12872C6.94618 1.85735 6.3321 2.87141 6.1 4H3C2.73478 4 2.48043 4.10536 2.29289 4.29289C2.10536 4.48043 2 4.73478 2 5C2 5.26522 2.10536 5.51957 2.29289 5.70711C2.48043 5.89464 2.73478 6 3 6H4V19C4.00159 20.3256 4.52888 21.5964 5.46622 22.5338C6.40356 23.4711 7.6744 23.9984 9 24H15C16.3256 23.9984 17.5964 23.4711 18.5338 22.5338C19.4711 21.5964 19.9984 20.3256 20 19V6H21C21.2652 6 21.5196 5.89464 21.7071 5.70711C21.8946 5.51957 22 5.26522 22 5C22 4.73478 21.8946 4.48043 21.7071 4.29289C21.5196 4.10536 21.2652 4 21 4V4ZM11 2H13C13.6203 2.00076 14.2251 2.19338 14.7316 2.55144C15.2381 2.90951 15.6214 3.41549 15.829 4H8.171C8.37858 3.41549 8.7619 2.90951 9.26839 2.55144C9.77487 2.19338 10.3797 2.00076 11 2V2ZM18 19C18 19.7956 17.6839 20.5587 17.1213 21.1213C16.5587 21.6839 15.7956 22 15 22H9C8.20435 22 7.44129 21.6839 6.87868 21.1213C6.31607 20.5587 6 19.7956 6 19V6H18V19Z" fill="white"/>
<path d="M16 12C16 11.7348 15.8946 11.4804 15.7071 11.2929C15.5196 11.1054 15.2652 11 15 11H9C8.73478 11 8.48043 11.1054 8.29289 11.2929C8.10536 11.4804 8 11.7348 8 12C8 12.2652 8.10536 12.5196 8.29289 12.7071C8.48043 12.8946 8.73478 13 9 13H15C15.2652 13 15.5196 12.8946 15.7071 12.7071C15.8946 12.5196 16 12.2652 16 12Z" fill="white"/>
<path d="M14 16C14 15.7348 13.9473 15.4804 13.8536 15.2929C13.7598 15.1054 13.6326 15 13.5 15H10.5C10.3674 15 10.2402 15.1054 10.1464 15.2929C10.0527 15.4804 10 15.7348 10 16C10 16.2652 10.0527 16.5196 10.1464 16.7071C10.2402 16.8946 10.3674 17 10.5 17H13.5C13.6326 17 13.7598 16.8946 13.8536 16.7071C13.9473 16.5196 14 16.2652 14 16Z" fill="white"/>
</g>
<defs>
<clipPath id="clip0_450_2126">
<rect width="24" height="24" fill="white"/>
</clipPath>
</defs>
</svg>
