<svg width="32" height="32" viewBox="0 0 32 32" fill="none" xmlns="http://www.w3.org/2000/svg">
<path d="M16 28.8667C15.5866 28.8667 15.1866 28.8133 14.8533 28.6933C9.75996 26.9467 1.66663 20.7467 1.66663 11.5867C1.66663 6.92 5.43996 3.13333 10.08 3.13333C12.3333 3.13333 14.44 4.01333 16 5.58666C17.56 4.01333 19.6666 3.13333 21.92 3.13333C26.56 3.13333 30.3333 6.93333 30.3333 11.5867C30.3333 20.76 22.24 26.9467 17.1466 28.6933C16.8133 28.8133 16.4133 28.8667 16 28.8667ZM10.08 5.13333C6.54663 5.13333 3.66663 8.02666 3.66663 11.5867C3.66663 20.6933 12.4266 25.76 15.5066 26.8133C15.7466 26.8933 16.2666 26.8933 16.5066 26.8133C19.5733 25.76 28.3466 20.7067 28.3466 11.5867C28.3466 8.02666 25.4666 5.13333 21.9333 5.13333C19.9066 5.13333 18.0266 6.08 16.8133 7.72C16.44 8.22666 15.5866 8.22666 15.2133 7.72C13.9733 6.06666 12.1066 5.13333 10.08 5.13333Z" fill="#292D32"/>
</svg>
